<svg width="40" height="40" viewBox="0 0 40 40" fill="none" xmlns="http://www.w3.org/2000/svg">
<path fill-rule="evenodd" clip-rule="evenodd" d="M11.7393 0.245458C8.48355 0.392357 5.66163 1.18835 3.38299 3.45736C1.09639 5.73829 0.310283 8.57138 0.163017 11.7933C0.0714728 13.8042 -0.463828 28.9965 1.08843 32.9807C2.13521 35.6686 4.19688 37.7352 6.90936 38.7854C8.17504 39.2777 9.61988 39.6109 11.7393 39.7082C29.4609 40.5102 36.0302 40.0736 38.8004 32.9807C39.2919 31.7181 39.6302 30.2746 39.7238 28.1604C40.5337 10.3934 39.5924 6.54227 36.5038 3.45736C34.0541 1.01365 31.1724 -0.649839 11.7393 0.245458ZM11.9025 36.135C9.96214 36.0476 8.9094 35.7243 8.2069 35.4524C6.43971 34.7655 5.11234 33.4436 4.42974 31.6868C3.24764 28.6594 3.6397 14.281 3.74517 11.9544C3.84866 9.67545 4.31035 7.59265 5.91833 5.9847C7.9084 3.99954 10.4796 3.02664 27.9863 3.81673C30.2709 3.91995 32.3585 4.3807 33.9705 5.9847C35.9605 7.96983 36.9476 10.5608 36.1436 28.0002C36.056 29.9358 35.7317 30.986 35.459 31.6868C33.658 36.3022 29.5146 36.9429 11.9025 36.135ZM28.1793 9.37922C28.1793 10.6934 29.248 11.762 30.5674 11.762C31.8869 11.762 32.9575 10.6934 32.9575 9.37922C32.9575 8.06506 31.8869 6.99739 30.5674 6.99739C29.248 6.99739 28.1793 8.06506 28.1793 9.37922ZM9.72534 19.9759C9.72534 25.6057 14.3005 30.1702 19.9444 30.1702C25.5883 30.1702 30.1635 25.6057 30.1635 19.9759C30.1635 14.346 25.5883 9.78449 19.9444 9.78449C14.3005 9.78449 9.72534 14.346 9.72534 19.9759ZM13.3115 19.9759C13.3115 16.3232 16.2807 13.3597 19.9444 13.3597C23.6081 13.3597 26.5773 16.3232 26.5773 19.9759C26.5773 23.6305 23.6081 26.595 19.9444 26.595C16.2807 26.595 13.3115 23.6305 13.3115 19.9759Z" fill="#895D39"/>
</svg>
